{
  "accessors": [
    {
      "bufferView": 2,
      "componentType": 5126,
      "count": 49,
      "max": [
        8.064048767089844,
        7.510956764221191,
        1.9047000408172607
      ],
      "min": [
        -2.0605669021606445,
        -17.592809677124023,
        1.275871992111206
      ],
      "type": "VEC3"
    },
    {
      "bufferView": 2,
      "byteOffset": 588,
      "componentType": 5126,
      "count": 49,
      "max": [
        1.0,
        9.999999747378752e-05,
        0.0
      ],
      "min": [
        -1.0,
        -1.0,
        0.0
      ],
      "type": "VEC3"
    },
    {
      "bufferView": 1,
      "componentType": 5126,
      "count": 49,
      "max": [
        0.528954029083252,
        0.7235879898071289
      ],
      "min": [
        0.48355400562286377,
        0.17156100273132324
      ],
      "type": "VEC2"
    },
    {
      "bufferView": 0,
      "componentType": 5125,
      "count": 123,
      "type": "SCALAR"
    },
    {
      "bufferView": 2,
      "byteOffset": 1176,
      "componentType": 5126,
      "count": 65532,
      "max": [
        8.06404972076416,
        8.916269302368164,
        7.169004917144775
      ],
      "min": [
        -2.0605669021606445,
        -17.592811584472656,
        1.0821599960327148
      ],
      "type": "VEC3"
    },
    {
      "bufferView": 2,
      "byteOffset": 787560,
      "componentType": 5126,
      "count": 65532,
      "max": [
        0.999998927116394,
        0.9998294711112976,
        1.0
      ],
      "min": [
        -0.999998927116394,
        -0.9997683167457581,
        -0.9999966621398926
      ],
      "type": "VEC3"
    },
    {
      "bufferView": 1,
      "byteOffset": 392,
      "componentType": 5126,
      "count": 65532,
      "max": [
        0.9995970129966736,
        0.9997559785842896
      ],
      "min": [
        0.0,
        0.001193000003695488
      ],
      "type": "VEC2"
    },
    {
      "bufferView": 0,
      "byteOffset": 492,
      "componentType": 5125,
      "count": 318732,
      "type": "SCALAR"
    },
    {
      "bufferView": 2,
      "byteOffset": 1573944,
      "componentType": 5126,
      "count": 65532,
      "max": [
        7.444665908813477,
        8.102496147155762,
        10.446186065673828
      ],
      "min": [
        -1.3082350492477417,
        -16.26581573486328,
        1.1022000312805176
      ],
      "type": "VEC3"
    },
    {
      "bufferView": 2,
      "byteOffset": 2360328,
      "componentType": 5126,
      "count": 65532,
      "max": [
        0.9999953508377075,
        0.9999921321868896,
        0.9999995231628418
      ],
      "min": [
        -0.9999946355819702,
        -0.9999594688415527,
        -0.9999963045120239
      ],
      "type": "VEC3"
    },
    {
      "bufferView": 1,
      "byteOffset": 524648,
      "componentType": 5126,
      "count": 65532,
      "max": [
        0.9995999932289124,
        0.9997559785842896
      ],
      "min": [
        0.0017089999746531248,
        0.0004670000053010881
      ],
      "type": "VEC2"
    },
    {
      "bufferView": 0,
      "byteOffset": 1275420,
      "componentType": 5125,
      "count": 303246,
      "type": "SCALAR"
    },
    {
      "bufferView": 2,
      "byteOffset": 3146712,
      "componentType": 5126,
      "count": 65532,
      "max": [
        7.889439105987549,
        8.0531005859375,
        10.428546905517578
      ],
      "min": [
        -0.22479000687599182,
        -16.349258422851563,
        1.2100410461425781
      ],
      "type": "VEC3"
    },
    {
      "bufferView": 2,
      "byteOffset": 3933096,
      "componentType": 5126,
      "count": 65532,
      "max": [
        0.9999994039535522,
        0.9999991655349731,
        1.0
      ],
      "min": [
        -0.9999985694885254,
        -0.9999998807907104,
        -0.9999978542327881
      ],
      "type": "VEC3"
    },
    {
      "bufferView": 1,
      "byteOffset": 1048904,
      "componentType": 5126,
      "count": 65532,
      "max": [
        0.9996160268783569,
        0.9997559785842896
      ],
      "min": [
        0.00024399999529123306,
        0.0027179999742656946
      ],
      "type": "VEC2"
    },
    {
      "bufferView": 0,
      "byteOffset": 2488404,
      "componentType": 5125,
      "count": 301644,
      "type": "SCALAR"
    },
    {
      "bufferView": 2,
      "byteOffset": 4719480,
      "componentType": 5126,
      "count": 65532,
      "max": [
        8.030506134033203,
        8.07352066040039,
        8.659969329833984
      ],
      "min": [
        -2.060565948486328,
        -16.30196189880371,
        1.101789951324463
      ],
      "type": "VEC3"
    },
    {
      "bufferView": 2,
      "byteOffset": 5505864,
      "componentType": 5126,
      "count": 65532,
      "max": [
        0.9999946355819702,
        0.9999582767486572,
        1.0
      ],
      "min": [
        -0.9999994039535522,
        -0.999993085861206,
        -0.9999991655349731
      ],
      "type": "VEC3"
    },
    {
      "bufferView": 1,
      "byteOffset": 1573160,
      "componentType": 5126,
      "count": 65532,
      "max": [
        0.9995070099830627,
        0.9997559785842896
      ],
      "min": [
        0.00024399999529123306,
        0.0003819999983534217
      ],
      "type": "VEC2"
    },
    {
      "bufferView": 0,
      "byteOffset": 3694980,
      "componentType": 5125,
      "count": 263751,
      "type": "SCALAR"
    },
    {
      "bufferView": 2,
      "byteOffset": 6292248,
      "componentType": 5126,
      "count": 65532,
      "max": [
        6.718516826629639,
        4.5661211013793945,
        7.3685760498046875
      ],
      "min": [
        -2.056555986404419,
        -15.33062744140625,
        1.1022000312805176
      ],
      "type": "VEC3"
    },
    {
      "bufferView": 2,
      "byteOffset": 7078632,
      "componentType": 5126,
      "count": 65532,
      "max": [
        0.9999995231628418,
        0.9999843835830688,
        1.0
      ],
      "min": [
        -0.9999992847442627,
        -0.9993174076080322,
        -1.0
      ],
      "type": "VEC3"
    },
    {
      "bufferView": 1,
      "byteOffset": 2097416,
      "componentType": 5126,
      "count": 65532,
      "max": [
        0.9995830059051514,
        0.9997559785842896
      ],
      "min": [
        0.00024399999529123306,
        0.00036800000816583633
      ],
      "type": "VEC2"
    },
    {
      "bufferView": 0,
      "byteOffset": 4749984,
      "componentType": 5125,
      "count": 287139,
      "type": "SCALAR"
    },
    {
      "bufferView": 2,
      "byteOffset": 7865016,
      "componentType": 5126,
      "count": 65532,
      "max": [
        6.600040912628174,
        8.878572463989258,
        9.464815139770508
      ],
      "min": [
        -2.044919013977051,
        -17.592809677124023,
        1.0471470355987549
      ],
      "type": "VEC3"
    },
    {
      "bufferView": 2,
      "byteOffset": 8651400,
      "componentType": 5126,
      "count": 65532,
      "max": [
        0.9999997615814209,
        0.999990701675415,
        1.0
      ],
      "min": [
        -0.9999996423721313,
        -0.9999996423721313,
        -0.9999995231628418
      ],
      "type": "VEC3"
    },
    {
      "bufferView": 1,
      "byteOffset": 2621672,
      "componentType": 5126,
      "count": 65532,
      "max": [
        0.9996169805526733,
        0.9997559785842896
      ],
      "min": [
        0.00024399999529123306,
        0.0004400000034365803
      ],
      "type": "VEC2"
    },
    {
      "bufferView": 0,
      "byteOffset": 5898540,
      "componentType": 5125,
      "count": 261510,
      "type": "SCALAR"
    },
    {
      "bufferView": 2,
      "byteOffset": 9437784,
      "componentType": 5126,
      "count": 65533,
      "max": [
        6.904566764831543,
        8.911520957946777,
        9.398162841796875
      ],
      "min": [
        -2.0605669021606445,
        -17.592809677124023,
        1.053657054901123
      ],
      "type": "VEC3"
    },
    {
      "bufferView": 2,
      "byteOffset": 10224180,
      "componentType": 5126,
      "count": 65533,
      "max": [
        0.9999886751174927,
        0.9999982118606567,
        0.9999991655349731
      ],
      "min": [
        -0.9999924898147583,
        -0.9999897480010986,
        -0.9999995231628418
      ],
      "type": "VEC3"
    },
    {
      "bufferView": 1,
      "byteOffset": 3145928,
      "componentType": 5126,
      "count": 65533,
      "max": [
        0.9995949864387512,
        0.9997559785842896
      ],
      "min": [
        0.00024399999529123306,
        0.00036800000816583633
      ],
      "type": "VEC2"
    },
    {
      "bufferView": 0,
      "byteOffset": 6944580,
      "componentType": 5125,
      "count": 202281,
      "type": "SCALAR"
    },
    {
      "bufferView": 2,
      "byteOffset": 11010576,
      "componentType": 5126,
      "count": 65533,
      "max": [
        8.064048767089844,
        8.910747528076172,
        10.395784378051758
      ],
      "min": [
        -2.0317630767822266,
        -17.581205368041992,
        1.0623199939727783
      ],
      "type": "VEC3"
    },
    {
      "bufferView": 2,
      "byteOffset": 11796972,
      "componentType": 5126,
      "count": 65533,
      "max": [
        0.9999998807907104,
        0.9999935626983643,
        1.0
      ],
      "min": [
        -0.9999998807907104,
        -0.9999967813491821,
        -0.9999996423721313
      ],
      "type": "VEC3"
    },
    {
      "bufferView": 1,
      "byteOffset": 3670192,
      "componentType": 5126,
      "count": 65533,
      "max": [
        0.9995219707489014,
        0.9997559785842896
      ],
      "min": [
        0.00024399999529123306,
        0.00036800000816583633
      ],
      "type": "VEC2"
    },
    {
      "bufferView": 0,
      "byteOffset": 7753704,
      "componentType": 5125,
      "count": 230118,
      "type": "SCALAR"
    },
    {
      "bufferView": 2,
      "byteOffset": 12583368,
      "componentType": 5126,
      "count": 65534,
      "max": [
        6.359076023101807,
        8.916268348693848,
        8.635175704956055
      ],
      "min": [
        -2.011094093322754,
        -17.592809677124023,
        1.1673190593719482
      ],
      "type": "VEC3"
    },
    {
      "bufferView": 2,
      "byteOffset": 13369776,
      "componentType": 5126,
      "count": 65534,
      "max": [
        0.9999946355819702,
        0.9999982118606567,
        1.0
      ],
      "min": [
        -0.9999984502792358,
        -0.9999949932098389,
        -0.9999995231628418
      ],
      "type": "VEC3"
    },
    {
      "bufferView": 1,
      "byteOffset": 4194456,
      "componentType": 5126,
      "count": 65534,
      "max": [
        0.9996060132980347,
        0.9997559785842896
      ],
      "min": [
        0.00024399999529123306,
        0.0003769999893847853
      ],
      "type": "VEC2"
    },
    {
      "bufferView": 0,
      "byteOffset": 8674176,
      "componentType": 5125,
      "count": 232407,
      "type": "SCALAR"
    },
    {
      "bufferView": 2,
      "byteOffset": 14156184,
      "componentType": 5126,
      "count": 11248,
      "max": [
        5.666318893432617,
        7.788971900939941,
        7.5438032150268555
      ],
      "min": [
        -2.048283100128174,
        -14.126933097839355,
        1.1976319551467896
      ],
      "type": "VEC3"
    },
    {
      "bufferView": 2,
      "byteOffset": 14291160,
      "componentType": 5126,
      "count": 11248,
      "max": [
        0.999983549118042,
        0.9999804496765137,
        0.9999983310699463
      ],
      "min": [
        -0.9999958276748657,
        -0.9999812841415405,
        -0.9999773502349854
      ],
      "type": "VEC3"
    },
    {
      "bufferView": 1,
      "byteOffset": 4718728,
      "componentType": 5126,
      "count": 11248,
      "max": [
        0.9980059862136841,
        0.9997559785842896
      ],
      "min": [
        0.00024399999529123306,
        0.00042799999937415123
      ],
      "type": "VEC2"
    },
    {
      "bufferView": 0,
      "byteOffset": 9603804,
      "componentType": 5125,
      "count": 33927,
      "type": "SCALAR"
    },
    {
      "bufferView": 2,
      "byteOffset": 14426136,
      "componentType": 5126,
      "count": 6952,
      "max": [
        8.06404972076416,
        8.916269302368164,
        1.9947960376739502
      ],
      "min": [
        -2.0605669021606445,
        -17.592811584472656,
        1.0
      ],
      "type": "VEC3"
    },
    {
      "bufferView": 2,
      "byteOffset": 14509560,
      "componentType": 5126,
      "count": 6952,
      "max": [
        1.0,
        1.0,
        0.9187721610069275
      ],
      "min": [
        -1.0,
        -1.0,
        -1.0
      ],
      "type": "VEC3"
    },
    {
      "bufferView": 1,
      "byteOffset": 4808712,
      "componentType": 5126,
      "count": 6952,
      "max": [
        0.7746970057487488,
        0.9521669745445251
      ],
      "min": [
        0.41586700081825256,
        0.015293000265955925
      ],
      "type": "VEC2"
    },
    {
      "bufferView": 0,
      "byteOffset": 9739512,
      "componentType": 5125,
      "count": 10380,
      "type": "SCALAR"
    }
  ],
  "asset": {
    "extras": {
      "author": "noe-3d.at (https://sketchfab.com/www.noe-3d.at)",
      "license": "CC-BY-NC-4.0 (http://creativecommons.org/licenses/by-nc/4.0/)",
      "source": "https://sketchfab.com/3d-models/parkbank-811a0cd8950b46d6a3181e126d66d1c4",
      "title": "Parkbank"
    },
    "generator": "Sketchfab-13.37.1",
    "version": "2.0"
  },
  "bufferViews": [
    {
      "buffer": 0,
      "byteLength": 9781032,
      "name": "floatBufferViews",
      "target": 34963
    },
    {
      "buffer": 0,
      "byteLength": 4864328,
      "byteOffset": 9781032,
      "byteStride": 8,
      "name": "floatBufferViews",
      "target": 34962
    },
    {
      "buffer": 0,
      "byteLength": 14592984,
      "byteOffset": 14645360,
      "byteStride": 12,
      "name": "floatBufferViews",
      "target": 34962
    }
  ],
  "buffers": [
    {
      "byteLength": 29238344,
      "uri": "scene.bin"
    }
  ],
  "images": [
    {
      "uri": "textures/Bank_O2_Material_u1_v1_baseColor.png"
    }
  ],
  "materials": [
    {
      "doubleSided": true,
      "name": "Bank_O2_Material_u1_v1",
      "pbrMetallicRoughness": {
        "baseColorTexture": {
          "index": 0
        },
        "metallicFactor": 0.0
      }
    },
    {
      "doubleSided": true,
      "name": "bottom",
      "pbrMetallicRoughness": {
        "baseColorFactor": [
          0.002080049765071848,
          0.010894155840135845,
          0.0016305831305992017,
          1.0
        ],
        "metallicFactor": 0.0
      }
    }
  ],
  "meshes": [
    {
      "name": "Object_0",
      "primitives": [
        {
          "attributes": {
            "NORMAL": 1,
            "POSITION": 0,
            "TEXCOORD_0": 2
          },
          "indices": 3,
          "material": 0,
          "mode": 4
        }
      ]
    },
    {
      "name": "Object_1",
      "primitives": [
        {
          "attributes": {
            "NORMAL": 5,
            "POSITION": 4,
            "TEXCOORD_0": 6
          },
          "indices": 7,
          "material": 0,
          "mode": 4
        }
      ]
    },
    {
      "name": "Object_2",
      "primitives": [
        {
          "attributes": {
            "NORMAL": 9,
            "POSITION": 8,
            "TEXCOORD_0": 10
          },
          "indices": 11,
          "material": 0,
          "mode": 4
        }
      ]
    },
    {
      "name": "Object_3",
      "primitives": [
        {
          "attributes": {
            "NORMAL": 13,
            "POSITION": 12,
            "TEXCOORD_0": 14
          },
          "indices": 15,
          "material": 0,
          "mode": 4
        }
      ]
    },
    {
      "name": "Object_4",
      "primitives": [
        {
          "attributes": {
            "NORMAL": 17,
            "POSITION": 16,
            "TEXCOORD_0": 18
          },
          "indices": 19,
          "material": 0,
          "mode": 4
        }
      ]
    },
    {
      "name": "Object_5",
      "primitives": [
        {
          "attributes": {
            "NORMAL": 21,
            "POSITION": 20,
            "TEXCOORD_0": 22
          },
          "indices": 23,
          "material": 0,
          "mode": 4
        }
      ]
    },
    {
      "name": "Object_6",
      "primitives": [
        {
          "attributes": {
            "NORMAL": 25,
            "POSITION": 24,
            "TEXCOORD_0": 26
          },
          "indices": 27,
          "material": 0,
          "mode": 4
        }
      ]
    },
    {
      "name": "Object_7",
      "primitives": [
        {
          "attributes": {
            "NORMAL": 29,
            "POSITION": 28,
            "TEXCOORD_0": 30
          },
          "indices": 31,
          "material": 0,
          "mode": 4
        }
      ]
    },
    {
      "name": "Object_8",
      "primitives": [
        {
          "attributes": {
            "NORMAL": 33,
            "POSITION": 32,
            "TEXCOORD_0": 34
          },
          "indices": 35,
          "material": 0,
          "mode": 4
        }
      ]
    },
    {
      "name": "Object_9",
      "primitives": [
        {
          "attributes": {
            "NORMAL": 37,
            "POSITION": 36,
            "TEXCOORD_0": 38
          },
          "indices": 39,
          "material": 0,
          "mode": 4
        }
      ]
    },
    {
      "name": "Object_10",
      "primitives": [
        {
          "attributes": {
            "NORMAL": 41,
            "POSITION": 40,
            "TEXCOORD_0": 42
          },
          "indices": 43,
          "material": 0,
          "mode": 4
        }
      ]
    },
    {
      "name": "Object_11",
      "primitives": [
        {
          "attributes": {
            "NORMAL": 45,
            "POSITION": 44,
            "TEXCOORD_0": 46
          },
          "indices": 47,
          "material": 1,
          "mode": 4
        }
      ]
    }
  ],
  "nodes": [
    {
      "children": [
        1
      ],
      "matrix": [
        -0.10089964796921969,
        -2.7501416407945195e-20,
        0.00012385536868698283,
        0.0,
        0.00012385536868698283,
        -2.2404222470400123e-17,
        0.10089964796921969,
        0.0,
        0.0,
        0.10089972615242004,
        2.2404239830557958e-17,
        0.0,
        0.0,
        0.0,
        0.0,
        1.0
      ],
      "name": "Sketchfab_model"
    },
    {
      "children": [
        2,
        3,
        4,
        5,
        6,
        7,
        8,
        9,
        10,
        11,
        12,
        13
      ],
      "name": "Bank_O2C.obj.cleaner.materialmerger.gles"
    },
    {
      "mesh": 0,
      "name": "Object_2"
    },
    {
      "mesh": 1,
      "name": "Object_3"
    },
    {
      "mesh": 2,
      "name": "Object_4"
    },
    {
      "mesh": 3,
      "name": "Object_5"
    },
    {
      "mesh": 4,
      "name": "Object_6"
    },
    {
      "mesh": 5,
      "name": "Object_7"
    },
    {
      "mesh": 6,
      "name": "Object_8"
    },
    {
      "mesh": 7,
      "name": "Object_9"
    },
    {
      "mesh": 8,
      "name": "Object_10"
    },
    {
      "mesh": 9,
      "name": "Object_11"
    },
    {
      "mesh": 10,
      "name": "Object_12"
    },
    {
      "mesh": 11,
      "name": "Object_13"
    }
  ],
  "samplers": [
    {
      "magFilter": 9729,
      "minFilter": 9987,
      "wrapS": 10497,
      "wrapT": 10497
    }
  ],
  "scene": 0,
  "scenes": [
    {
      "name": "Sketchfab_Scene",
      "nodes": [
        0
      ]
    }
  ],
  "textures": [
    {
      "sampler": 0,
      "source": 0
    }
  ]
}
